<svg height="512pt" viewBox="0 -62 512 512" width="512pt" xmlns="http://www.w3.org/2000/svg"><path d="m447 0h-191l-21.332031 175 21.332031 212.972656.121094.121094 48.757812-48.757812h142.121094c35.839844 0 65-29.160157 65-65v-209.335938c0-35.839844-29.160156-65-65-65zm0 0" fill="#c3dce6"/><path d="m65 0c-35.839844 0-65 29.160156-65 65v209.332031c0 18.148438 7.433594 34.699219 20.929688 46.605469 13.644531 12.035156 32.226562 18.394531 53.738281 18.394531h131.554687l49.777344 48.640625v-387.972656zm0 0" fill="#e1f0f5"/><path d="m231.617188 108.058594c-9.160157-9.164063-21.339844-14.207032-34.296876-14.207032-12.953124 0-25.132812 5.042969-34.292968 14.207032l-6.460938 6.457031-6.460937-6.457031c-9.160157-9.164063-21.339844-14.207032-34.292969-14.207032-12.957031 0-25.136719 5.042969-34.296875 14.207032-18.910156 18.910156-18.910156 49.679687 0 68.589844l75.050781 75.046874 75.050782-75.046874c18.910156-18.910157 18.910156-49.679688 0-68.589844zm0 0" fill="#ff4b00"/><g fill="#282828"><path d="m320.101562 124.519531v90.296875h-30.445312v-67.335937h-15.476562v-22.960938zm0 0"/><path d="m387.054688 184.890625-6.839844 7.609375v22.316406h-29.929688v-90.296875h29.929688v32.765625l29.671875-32.765625h33.148437l-36.117187 39.730469 37.925781 50.566406h-35.214844zm0 0"/></g></svg>